<?xml version="1.0" encoding="utf-8"?>
<!-- Generator: Adobe Illustrator 27.6.1, SVG Export Plug-In . SVG Version: 6.00 Build 0)  -->
<svg version="1.1" id="Layer_1" xmlns="http://www.w3.org/2000/svg" xmlns:xlink="http://www.w3.org/1999/xlink" x="0px" y="0px"
	 viewBox="0 0 59.62 45.96" style="enable-background:new 0 0 59.62 45.96;" xml:space="preserve">
<style type="text/css">
	.st0{fill:#132B4A;}
</style>
<g id="Group_2624" transform="translate(129.014 44)">
	<path id="Path_11545" class="st0" d="M-111.19-9.01c2.54,2.48,2.6,6.55,0.12,9.1c-2.48,2.54-6.55,2.6-9.1,0.12
		c-0.04-0.04-0.07-0.07-0.11-0.11c-11.64-11.66-11.64-30.55,0-42.21c2.54-2.48,6.62-2.43,9.1,0.12c2.44,2.5,2.44,6.49-0.01,8.99
		C-117.81-26.38-117.81-15.64-111.19-9.01L-111.19-9.01z"/>
	<path id="Union_3" class="st0" d="M-87.22,0.09c-2.51-2.52-2.51-6.59,0-9.1c3.18-3.18,4.97-7.5,4.96-12c0-2.25-0.45-4.48-1.32-6.56
		l-11.09,11.11l0,0c-2.54,2.48-6.62,2.43-9.1-0.12c-2.44-2.5-2.43-6.49,0.01-8.99l16.53-16.55c2.51-2.51,6.57-2.51,9.08-0.01
		c0,0,0.01,0.01,0.01,0.01c11.64,11.66,11.64,30.55,0,42.21C-80.63,2.6-84.7,2.61-87.22,0.09C-87.21,0.1-87.22,0.1-87.22,0.09
		L-87.22,0.09z"/>
</g>
</svg>
